<?xml version="1.0" encoding="UTF-8" standalone="no"?>
<!DOCTYPE svg PUBLIC "-//W3C//DTD SVG 1.1//EN"
 "http://www.w3.org/Graphics/SVG/1.1/DTD/svg11.dtd">
<!-- Generated by graphviz version 2.40.1 (20161225.0304)
 -->
<!-- Title: mytrace Pages: 1 -->
<svg width="2724pt" height="1093pt"
 viewBox="0.00 0.00 2724.46 1093.13" xmlns="http://www.w3.org/2000/svg" xmlns:xlink="http://www.w3.org/1999/xlink">
<g id="graph0" class="graph" transform="scale(1 1) rotate(0) translate(4 1089.1279)">
<title>mytrace</title>
<polygon fill="#ffffff" stroke="transparent" points="-4,4 -4,-1089.1279 2720.4642,-1089.1279 2720.4642,4 -4,4"/>
<!-- 213977312221895837199412816265326724789 -->
<g id="node1" class="node">
<title>213977312221895837199412816265326724789</title>
<ellipse fill="none" stroke="#000000" cx="193.5483" cy="-513" rx="193.5966" ry="18"/>
<text text-anchor="middle" x="193.5483" y="-508.8" font-family="Times,serif" font-size="14.00" fill="#000000">trace:index (a0fa8803753e40fd8124b21eeb2986b5)</text>
</g>
<!-- 10848326615985732359 -->
<g id="node2" class="node">
<title>10848326615985732359</title>
<ellipse fill="none" stroke="#000000" cx="2593.1455" cy="-680" rx="123.3354" ry="18"/>
<text text-anchor="middle" x="2593.1455" y="-675.8" font-family="Times,serif" font-size="14.00" fill="#000000">span:index (968cff94913ebb07)</text>
</g>
<!-- 213977312221895837199412816265326724789&#45;&gt;10848326615985732359 -->
<g id="edge1" class="edge">
<title>213977312221895837199412816265326724789&#45;&gt;10848326615985732359</title>
<path fill="none" stroke="#000000" stroke-dasharray="1,5" d="M324.7286,-526.2919C347.9721,-533.9944 370.1309,-545.6118 387.0966,-563 436.4862,-613.6196 380.998,-661.1723 423.0966,-718 508.2525,-832.9498 564.9758,-837.2807 701.8132,-879 833.1298,-919.0361 872.9286,-892.1463 1009.9879,-900 1191.592,-910.4062 1236.9732,-914.7766 1418.8261,-919 1680.07,-925.0671 1749.9495,-967.1823 2006.7834,-919 2023.6564,-915.8346 2026.3092,-909.8286 2042.7834,-905 2212.9335,-855.1287 2275.7903,-906.3909 2433.8267,-826 2492.0895,-796.3626 2544.8443,-739.4376 2572.6002,-706.0977"/>
<polygon fill="#000000" stroke="#000000" points="2575.4736,-708.1132 2579.1062,-698.1606 2570.0599,-703.6756 2575.4736,-708.1132"/>
</g>
<!-- 10695730148961032308 -->
<g id="node9" class="node">
<title>10695730148961032308</title>
<ellipse fill="none" stroke="#000000" cx="837.9006" cy="-536" rx="136.1748" ry="18"/>
<text text-anchor="middle" x="837.9006" y="-531.8" font-family="Times,serif" font-size="14.00" fill="#000000">span:compute (946edde6ee421874)</text>
</g>
<!-- 213977312221895837199412816265326724789&#45;&gt;10695730148961032308 -->
<g id="edge6" class="edge">
<title>213977312221895837199412816265326724789&#45;&gt;10695730148961032308</title>
<path fill="none" stroke="#000000" stroke-dasharray="1,5" d="M364.0221,-504.4762C453.9229,-501.769 565.9818,-501.216 665.8132,-509 693.3501,-511.1471 723.1421,-515.1988 750.0752,-519.5228"/>
<polygon fill="#000000" stroke="#000000" points="749.8125,-523.0263 760.247,-521.1899 750.9447,-516.1185 749.8125,-523.0263"/>
</g>
<!-- 13788869053623754394 -->
<g id="node11" class="node">
<title>13788869053623754394</title>
<ellipse fill="none" stroke="#000000" cx="2238.3051" cy="-764" rx="119.27" ry="18"/>
<text text-anchor="middle" x="2238.3051" y="-759.8" font-family="Times,serif" font-size="14.00" fill="#000000">span:wait (bf5be759039ede9a)</text>
</g>
<!-- 213977312221895837199412816265326724789&#45;&gt;13788869053623754394 -->
<g id="edge8" class="edge">
<title>213977312221895837199412816265326724789&#45;&gt;13788869053623754394</title>
<path fill="none" stroke="#000000" stroke-dasharray="1,5" d="M306.5788,-527.6473C334.6706,-535.0591 363.4743,-546.2142 387.0966,-563 410.6092,-579.7079 402.7558,-596.5488 423.0966,-617 528.4658,-722.9416 559.875,-758.3111 701.8132,-805 839.5499,-850.3068 1865.3172,-834.8025 2006.7834,-803 2023.8661,-799.1597 2025.8978,-791.6307 2042.7834,-787 2066.8629,-780.3964 2093.1212,-775.6888 2118.3541,-772.3327"/>
<polygon fill="#000000" stroke="#000000" points="2118.8607,-775.7966 2128.3409,-771.0664 2117.9801,-768.8522 2118.8607,-775.7966"/>
</g>
<!-- 12886313978623292199 -->
<g id="node12" class="node">
<title>12886313978623292199</title>
<ellipse fill="none" stroke="#000000" cx="2238.3051" cy="-444" rx="118.3354" ry="18"/>
<text text-anchor="middle" x="2238.3051" y="-439.8" font-family="Times,serif" font-size="14.00" fill="#000000">span:wait (b2d56249f7fdf327)</text>
</g>
<!-- 213977312221895837199412816265326724789&#45;&gt;12886313978623292199 -->
<g id="edge10" class="edge">
<title>213977312221895837199412816265326724789&#45;&gt;12886313978623292199</title>
<path fill="none" stroke="#000000" stroke-dasharray="1,5" d="M222.8672,-495.2069C325.9906,-433.8006 683.4148,-230.8727 1009.9879,-164 1189.496,-127.242 2005.7946,-201.11 2006.7834,-202 2078.7952,-266.8164 1973.2995,-349.4807 2042.7834,-417 2064.366,-437.9723 2094.1509,-447.7328 2123.9704,-451.5059"/>
<polygon fill="#000000" stroke="#000000" points="2123.7626,-455.0032 2134.0727,-452.5635 2124.4915,-448.0413 2123.7626,-455.0032"/>
</g>
<!-- 12421771694198418854 -->
<g id="node13" class="node">
<title>12421771694198418854</title>
<ellipse fill="none" stroke="#000000" cx="544.4549" cy="-590" rx="116.5196" ry="18"/>
<text text-anchor="middle" x="544.4549" y="-585.8" font-family="Times,serif" font-size="14.00" fill="#000000">span:wait (ac62ff8ae1b2eda6)</text>
</g>
<!-- 213977312221895837199412816265326724789&#45;&gt;12421771694198418854 -->
<g id="edge12" class="edge">
<title>213977312221895837199412816265326724789&#45;&gt;12421771694198418854</title>
<path fill="none" stroke="#000000" stroke-dasharray="1,5" d="M269.2578,-529.6131C327.729,-542.4435 408.3312,-560.1302 467.1902,-573.0457"/>
<polygon fill="#000000" stroke="#000000" points="466.6608,-576.5127 477.1786,-575.2374 468.1611,-569.6754 466.6608,-576.5127"/>
</g>
<!-- 10129474377767673784 -->
<g id="node14" class="node">
<title>10129474377767673784</title>
<ellipse fill="none" stroke="#000000" cx="1712.8048" cy="-490" rx="293.9573" ry="18"/>
<text text-anchor="middle" x="1712.8048" y="-485.8" font-family="Times,serif" font-size="14.00" fill="#000000">span:http://httpbin.org/base64/aGVsbG8gd29ybGQK GET (8c931f4740435fb8)</text>
</g>
<!-- 213977312221895837199412816265326724789&#45;&gt;10129474377767673784 -->
<g id="edge14" class="edge">
<title>213977312221895837199412816265326724789&#45;&gt;10129474377767673784</title>
<path fill="none" stroke="#000000" stroke-dasharray="1,5" d="M278.3831,-496.7679C473.559,-461.6001 969.422,-384.6708 1382.8261,-425 1469.7467,-433.4794 1567.7413,-454.2392 1634.1979,-470.0347"/>
<polygon fill="#000000" stroke="#000000" points="1633.6371,-473.4993 1644.1774,-472.4257 1635.2681,-466.692 1633.6371,-473.4993"/>
</g>
<!-- 11252927259328145570 -->
<g id="node15" class="node">
<title>11252927259328145570</title>
<ellipse fill="none" stroke="#000000" cx="1196.407" cy="-452" rx="186.3383" ry="18"/>
<text text-anchor="middle" x="1196.407" y="-447.8" font-family="Times,serif" font-size="14.00" fill="#000000">span:tracing.decode_base64 (9c2a6db8c79068a2)</text>
</g>
<!-- 213977312221895837199412816265326724789&#45;&gt;11252927259328145570 -->
<g id="edge16" class="edge">
<title>213977312221895837199412816265326724789&#45;&gt;11252927259328145570</title>
<path fill="none" stroke="#000000" stroke-dasharray="1,5" d="M351.5982,-502.5505C375.5522,-501.002 399.978,-499.4429 423.0966,-498 630.6257,-485.0472 869.5381,-470.962 1026.2355,-461.8364"/>
<polygon fill="#000000" stroke="#000000" points="1026.6571,-465.3179 1036.4368,-461.2426 1026.2503,-458.3297 1026.6571,-465.3179"/>
</g>
<!-- 11354074206287318022 -->
<g id="node16" class="node">
<title>11354074206287318022</title>
<ellipse fill="none" stroke="#000000" cx="544.4549" cy="-536" rx="121.2168" ry="18"/>
<text text-anchor="middle" x="544.4549" y="-531.8" font-family="Times,serif" font-size="14.00" fill="#000000">span:wait (9d91c6558b2e4c06)</text>
</g>
<!-- 213977312221895837199412816265326724789&#45;&gt;11354074206287318022 -->
<g id="edge18" class="edge">
<title>213977312221895837199412816265326724789&#45;&gt;11354074206287318022</title>
<path fill="none" stroke="#000000" stroke-dasharray="1,5" d="M351.8064,-523.3729C375.7948,-524.9453 400.216,-526.5459 423.2532,-528.0559"/>
<polygon fill="#000000" stroke="#000000" points="423.1762,-531.5583 433.3837,-528.7199 423.6341,-524.5733 423.1762,-531.5583"/>
</g>
<!-- 189680067412161401408211119957991300803 -->
<g id="node3" class="node">
<title>189680067412161401408211119957991300803</title>
<ellipse fill="none" stroke="#000000" cx="2238.3051" cy="-390" rx="191.8062" ry="18"/>
<text text-anchor="middle" x="2238.3051" y="-385.8" font-family="Times,serif" font-size="14.00" fill="#000000">trace:static (8eb30d5ae5f3403ba3a036e696111ec3)</text>
</g>
<!-- 10946161693179750605 -->
<g id="node4" class="node">
<title>10946161693179750605</title>
<ellipse fill="none" stroke="#000000" cx="2593.1455" cy="-417" rx="121.8733" ry="18"/>
<text text-anchor="middle" x="2593.1455" y="-412.8" font-family="Times,serif" font-size="14.00" fill="#000000">span:static (97e894108ff7a8cd)</text>
</g>
<!-- 189680067412161401408211119957991300803&#45;&gt;10946161693179750605 -->
<g id="edge2" class="edge">
<title>189680067412161401408211119957991300803&#45;&gt;10946161693179750605</title>
<path fill="none" stroke="#000000" stroke-dasharray="1,5" d="M2387.5039,-401.3526C2416.6224,-403.5683 2446.7817,-405.8631 2474.7354,-407.9901"/>
<polygon fill="#000000" stroke="#000000" points="2474.6916,-411.4968 2484.9283,-408.7657 2475.2227,-404.517 2474.6916,-411.4968"/>
</g>
<!-- 243760014067241244567037757667822711540 -->
<g id="node5" class="node">
<title>243760014067241244567037757667822711540</title>
<ellipse fill="none" stroke="#000000" cx="2238.3051" cy="-932" rx="195.5433" ry="18"/>
<text text-anchor="middle" x="2238.3051" y="-927.8" font-family="Times,serif" font-size="14.00" fill="#000000">trace:index (b7627895a90b41718be82d3ad21ab2f4)</text>
</g>
<!-- 11504827122213183863 -->
<g id="node6" class="node">
<title>11504827122213183863</title>
<ellipse fill="none" stroke="#000000" cx="2593.1455" cy="-909" rx="121.3888" ry="18"/>
<text text-anchor="middle" x="2593.1455" y="-904.8" font-family="Times,serif" font-size="14.00" fill="#000000">span:index (9fa95b4ffdcbe177)</text>
</g>
<!-- 243760014067241244567037757667822711540&#45;&gt;11504827122213183863 -->
<g id="edge3" class="edge">
<title>243760014067241244567037757667822711540&#45;&gt;11504827122213183863</title>
<path fill="none" stroke="#000000" stroke-dasharray="1,5" d="M2398.3373,-921.6271C2423.025,-920.0268 2448.1662,-918.3973 2471.8239,-916.8638"/>
<polygon fill="#000000" stroke="#000000" points="2472.1138,-920.3525 2481.8665,-916.2129 2471.661,-913.3671 2472.1138,-920.3525"/>
</g>
<!-- 29528545588201242414770090507008174449 -->
<g id="node7" class="node">
<title>29528545588201242414770090507008174449</title>
<ellipse fill="none" stroke="#000000" cx="2238.3051" cy="-18" rx="194.0811" ry="18"/>
<text text-anchor="middle" x="2238.3051" y="-13.8" font-family="Times,serif" font-size="14.00" fill="#000000">trace:static (1636fdb33db84e7c9a4e606c1b176971)</text>
</g>
<!-- 13151252664271832927 -->
<g id="node8" class="node">
<title>13151252664271832927</title>
<ellipse fill="none" stroke="#000000" cx="2593.1455" cy="-211" rx="123.1377" ry="18"/>
<text text-anchor="middle" x="2593.1455" y="-206.8" font-family="Times,serif" font-size="14.00" fill="#000000">span:static (b682a29ead55075f)</text>
</g>
<!-- 29528545588201242414770090507008174449&#45;&gt;13151252664271832927 -->
<g id="edge4" class="edge">
<title>29528545588201242414770090507008174449&#45;&gt;13151252664271832927</title>
<path fill="none" stroke="#000000" stroke-dasharray="1,5" d="M2380.3108,-30.3528C2398.9103,-35.0744 2417.2448,-41.4422 2433.8267,-50 2496.2634,-82.223 2549.1546,-147.8949 2575.4096,-184.6272"/>
<polygon fill="#000000" stroke="#000000" points="2572.5891,-186.701 2581.2017,-192.8714 2578.3168,-182.6769 2572.5891,-186.701"/>
</g>
<!-- 10695730148961032308&#45;&gt;10848326615985732359 -->
<g id="edge19" class="edge">
<title>10695730148961032308&#45;&gt;10848326615985732359</title>
<path fill="none" stroke="#efefef" d="M883.5631,-553.0153C917.8376,-564.9926 966.1981,-580.2238 1009.9879,-588 1287.5914,-637.2967 2134.3705,-666.6016 2461.8817,-676.3494"/>
<polygon fill="#efefef" stroke="#efefef" points="2461.7932,-679.8482 2471.8925,-676.646 2462.0006,-672.8513 2461.7932,-679.8482"/>
</g>
<!-- 10695730148961032308&#45;&gt;10946161693179750605 -->
<g id="edge20" class="edge">
<title>10695730148961032308&#45;&gt;10946161693179750605</title>
<path fill="none" stroke="#efefef" d="M929.6288,-549.393C1177.5968,-582.3783 1879.8852,-654.4066 2433.8267,-504 2481.1615,-491.1476 2529.8273,-461.7665 2560.7102,-440.7045"/>
<polygon fill="#efefef" stroke="#efefef" points="2563.0954,-443.3096 2569.3175,-434.7343 2559.1058,-437.5578 2563.0954,-443.3096"/>
</g>
<!-- 10695730148961032308&#45;&gt;11504827122213183863 -->
<g id="edge21" class="edge">
<title>10695730148961032308&#45;&gt;11504827122213183863</title>
<path fill="none" stroke="#efefef" d="M869.9101,-553.6102C903.9799,-571.9237 959.7882,-600.7015 1009.9879,-621 1441.2215,-795.3715 1577.9284,-759.8577 2006.7834,-940 2023.4633,-947.0065 2025.2224,-954.6502 2042.7834,-959 2211.4823,-1000.7864 2262.0349,-985.3243 2433.8267,-959 2470.802,-953.3341 2510.9795,-940.677 2541.7371,-929.5158"/>
<polygon fill="#efefef" stroke="#efefef" points="2543.2086,-932.7035 2551.3764,-925.9554 2540.7831,-926.1371 2543.2086,-932.7035"/>
</g>
<!-- 10695730148961032308&#45;&gt;13151252664271832927 -->
<g id="edge22" class="edge">
<title>10695730148961032308&#45;&gt;13151252664271832927</title>
<path fill="none" stroke="#efefef" d="M862.021,-518.1532C894.465,-494.6926 954.511,-453.1635 1009.9879,-425 1183.5468,-336.8906 1228.812,-310.1969 1418.8261,-268 1794.4481,-184.5848 2253.6293,-193.1099 2469.6393,-203.4029"/>
<polygon fill="#efefef" stroke="#efefef" points="2469.5822,-206.9041 2479.7404,-203.894 2469.9222,-199.9124 2469.5822,-206.9041"/>
</g>
<!-- 10695730148961032308&#45;&gt;11252927259328145570 -->
<g id="edge15" class="edge">
<title>10695730148961032308&#45;&gt;11252927259328145570</title>
<path fill="none" stroke="#000000" d="M887.5346,-519.2244C921.6756,-508.1254 968.2206,-493.8555 1009.9879,-484 1034.0048,-478.3329 1059.9849,-473.2356 1084.7061,-468.8617"/>
<polygon fill="#000000" stroke="#000000" points="1085.5932,-472.26 1094.8441,-467.0955 1084.3917,-465.3639 1085.5932,-472.26"/>
</g>
<!-- 13610234804785734989 -->
<g id="node10" class="node">
<title>13610234804785734989</title>
<ellipse fill="none" stroke="#000000" cx="193.5483" cy="-590" rx="98.583" ry="18"/>
<text text-anchor="middle" x="193.5483" y="-585.8" font-family="Times,serif" font-size="14.00" fill="#000000">13610234804785734989</text>
</g>
<!-- 13610234804785734989&#45;&gt;10695730148961032308 -->
<g id="edge5" class="edge">
<title>13610234804785734989&#45;&gt;10695730148961032308</title>
<path fill="none" stroke="#000000" d="M255.1809,-604.1769C346.1912,-622.729 521.3508,-649.2991 665.8132,-617 715.4457,-605.9031 767.6468,-578.8394 801.3604,-559.038"/>
<polygon fill="#000000" stroke="#000000" points="803.569,-561.7958 810.3616,-553.6649 799.9811,-555.7853 803.569,-561.7958"/>
</g>
<!-- 13610234804785734989&#45;&gt;13788869053623754394 -->
<g id="edge7" class="edge">
<title>13610234804785734989&#45;&gt;13788869053623754394</title>
<path fill="none" stroke="#000000" d="M214.8024,-607.5822C292.6233,-670.1112 571.3928,-878 837.9006,-878 837.9006,-878 837.9006,-878 1196.407,-878 1286.4883,-878 1930.1605,-901.3664 2006.7834,-854 2035.5371,-836.2252 2014.8345,-806.0152 2042.7834,-787 2063.2116,-773.1015 2087.6936,-765.2184 2112.3109,-761.0617"/>
<polygon fill="#000000" stroke="#000000" points="2113.1068,-764.4819 2122.4836,-759.5498 2112.0777,-757.558 2113.1068,-764.4819"/>
</g>
<!-- 13610234804785734989&#45;&gt;12886313978623292199 -->
<g id="edge9" class="edge">
<title>13610234804785734989&#45;&gt;12886313978623292199</title>
<path fill="none" stroke="#000000" d="M270.0044,-578.6209C306.8504,-571.0842 350.8074,-558.9783 387.0966,-540 405.807,-530.2149 406.8946,-522.5396 423.0966,-509 545.4715,-406.7344 554.4545,-343.9858 701.8132,-283 868.7716,-213.9026 1907.4953,-170.9362 2006.7834,-251 2065.5501,-298.3882 1987.4038,-365.6944 2042.7834,-417 2063.8641,-436.5299 2092.1154,-446.1618 2120.577,-450.2848"/>
<polygon fill="#000000" stroke="#000000" points="2120.2895,-453.7757 2130.6415,-451.5205 2121.1426,-446.8278 2120.2895,-453.7757"/>
</g>
<!-- 13610234804785734989&#45;&gt;12421771694198418854 -->
<g id="edge11" class="edge">
<title>13610234804785734989&#45;&gt;12421771694198418854</title>
<path fill="none" stroke="#000000" d="M292.2292,-590C331.0882,-590 376.2058,-590 417.4483,-590"/>
<polygon fill="#000000" stroke="#000000" points="417.5653,-593.5001 427.5652,-590 417.5652,-586.5001 417.5653,-593.5001"/>
</g>
<!-- 13610234804785734989&#45;&gt;11354074206287318022 -->
<g id="edge17" class="edge">
<title>13610234804785734989&#45;&gt;11354074206287318022</title>
<path fill="none" stroke="#000000" d="M269.2578,-578.3493C322.1913,-570.2035 393.2624,-559.2666 449.9191,-550.5478"/>
<polygon fill="#000000" stroke="#000000" points="450.6101,-553.9828 459.9614,-549.0025 449.5454,-547.0642 450.6101,-553.9828"/>
</g>
<!-- 13788869053623754394&#45;&gt;10848326615985732359 -->
<g id="edge23" class="edge">
<title>13788869053623754394&#45;&gt;10848326615985732359</title>
<path fill="none" stroke="#efefef" d="M2328.9261,-752.1279C2362.1469,-747.0005 2399.9056,-740.26 2433.8267,-732 2469.1564,-723.397 2507.9605,-710.8009 2538.427,-700.1608"/>
<polygon fill="#efefef" stroke="#efefef" points="2539.7432,-703.408 2548.0108,-696.7824 2537.416,-696.8061 2539.7432,-703.408"/>
</g>
<!-- 13788869053623754394&#45;&gt;10946161693179750605 -->
<g id="edge24" class="edge">
<title>13788869053623754394&#45;&gt;10946161693179750605</title>
<path fill="none" stroke="#efefef" d="M2257.9866,-745.9847C2293.5307,-713.3382 2370.6133,-642.0281 2433.8267,-580 2482.7238,-532.0198 2538.3468,-474.3901 2569.2372,-442.1042"/>
<polygon fill="#efefef" stroke="#efefef" points="2571.795,-444.4937 2576.1735,-434.846 2566.7342,-439.6575 2571.795,-444.4937"/>
</g>
<!-- 13788869053623754394&#45;&gt;11504827122213183863 -->
<g id="edge25" class="edge">
<title>13788869053623754394&#45;&gt;11504827122213183863</title>
<path fill="none" stroke="#efefef" d="M2279.7042,-780.9171C2344.9195,-807.5663 2471.4121,-859.2556 2542.1386,-888.1568"/>
<polygon fill="#efefef" stroke="#efefef" points="2541.1552,-891.5359 2551.7361,-892.0787 2543.8031,-885.056 2541.1552,-891.5359"/>
</g>
<!-- 13788869053623754394&#45;&gt;13151252664271832927 -->
<g id="edge26" class="edge">
<title>13788869053623754394&#45;&gt;13151252664271832927</title>
<path fill="none" stroke="#efefef" d="M2252.0278,-745.8405C2285.6557,-700.8597 2373.7991,-580.014 2433.8267,-471 2452.8291,-436.4905 2450.5693,-424.3679 2469.8267,-390 2501.7976,-332.9431 2547.0007,-271.1001 2572.8662,-237.1024"/>
<polygon fill="#efefef" stroke="#efefef" points="2575.7085,-239.1474 2579.0057,-229.0787 2570.1492,-234.8936 2575.7085,-239.1474"/>
</g>
<!-- 12886313978623292199&#45;&gt;10848326615985732359 -->
<g id="edge27" class="edge">
<title>12886313978623292199&#45;&gt;10848326615985732359</title>
<path fill="none" stroke="#efefef" d="M2303.3711,-459.1463C2343.1494,-470.3209 2393.8843,-488.1231 2433.8267,-514 2493.4165,-552.6056 2547.0636,-617.6297 2574.292,-653.7738"/>
<polygon fill="#efefef" stroke="#efefef" points="2571.545,-655.9452 2580.3207,-661.8813 2577.1623,-651.7682 2571.545,-655.9452"/>
</g>
<!-- 12886313978623292199&#45;&gt;10946161693179750605 -->
<g id="edge28" class="edge">
<title>12886313978623292199&#45;&gt;10946161693179750605</title>
<path fill="none" stroke="#efefef" d="M2344.2882,-435.9357C2385.3145,-432.814 2432.4586,-429.2267 2474.6035,-426.0199"/>
<polygon fill="#efefef" stroke="#efefef" points="2474.9319,-429.5051 2484.6375,-425.2564 2474.4007,-422.5253 2474.9319,-429.5051"/>
</g>
<!-- 12886313978623292199&#45;&gt;11504827122213183863 -->
<g id="edge29" class="edge">
<title>12886313978623292199&#45;&gt;11504827122213183863</title>
<path fill="none" stroke="#efefef" d="M2255.7066,-461.9557C2291.0337,-498.7849 2372.9669,-586.141 2433.8267,-666 2491.183,-741.2616 2550.0223,-836.694 2577.3777,-882.3313"/>
<polygon fill="#efefef" stroke="#efefef" points="2574.4408,-884.24 2582.5724,-891.0317 2580.4511,-880.6514 2574.4408,-884.24"/>
</g>
<!-- 12886313978623292199&#45;&gt;13151252664271832927 -->
<g id="edge30" class="edge">
<title>12886313978623292199&#45;&gt;13151252664271832927</title>
<path fill="none" stroke="#efefef" d="M2356.3744,-442.4994C2383.1611,-438.2304 2410.548,-430.4791 2433.8267,-417 2471.7517,-395.0403 2543.5999,-288.2079 2576.2452,-237.6383"/>
<polygon fill="#efefef" stroke="#efefef" points="2579.2259,-239.4739 2581.6856,-229.1685 2573.3363,-235.6907 2579.2259,-239.4739"/>
</g>
<!-- 12421771694198418854&#45;&gt;10848326615985732359 -->
<g id="edge31" class="edge">
<title>12421771694198418854&#45;&gt;10848326615985732359</title>
<path fill="none" stroke="#efefef" d="M551.6102,-608.0425C569.5714,-650.6861 620.9894,-757.6588 701.8132,-805 827.2051,-878.4463 1879.7912,-962.6431 2006.7834,-892 2033.2969,-877.2511 2017.1169,-850.178 2042.7834,-834 2190.6969,-740.7678 2270.1299,-852.433 2433.8267,-791 2485.977,-771.4288 2537.1792,-730.8792 2566.9314,-704.5854"/>
<polygon fill="#efefef" stroke="#efefef" points="2569.2732,-707.1865 2574.379,-697.9031 2564.5984,-701.9763 2569.2732,-707.1865"/>
</g>
<!-- 12421771694198418854&#45;&gt;10946161693179750605 -->
<g id="edge32" class="edge">
<title>12421771694198418854&#45;&gt;10946161693179750605</title>
<path fill="none" stroke="#efefef" d="M633.9341,-578.4054C645.2412,-574.6003 656.1991,-569.5894 665.8132,-563 689.6056,-546.6929 678.4122,-525.8639 701.8132,-509 816.9859,-426.0008 869.2793,-443.8331 1009.9879,-425 1174.2292,-403.0172 1217.1969,-419.9611 1382.8261,-425 1660.5258,-433.4484 1731.6638,-424.3004 2006.7834,-463 2023.0139,-465.2831 2026.491,-469.2115 2042.7834,-471 2215.5427,-489.9642 2262.3446,-499.2715 2433.8267,-471 2472.3458,-464.6495 2514.0767,-450.208 2545.1631,-437.8565"/>
<polygon fill="#efefef" stroke="#efefef" points="2546.4937,-441.0938 2554.4536,-434.1016 2543.8706,-434.6038 2546.4937,-441.0938"/>
</g>
<!-- 12421771694198418854&#45;&gt;11504827122213183863 -->
<g id="edge33" class="edge">
<title>12421771694198418854&#45;&gt;11504827122213183863</title>
<path fill="none" stroke="#efefef" d="M546.0388,-608.2079C552.4424,-669.8813 582.1468,-872.3648 701.8132,-968 876.1085,-1107.2936 973.2893,-1054 1196.407,-1054 1196.407,-1054 1196.407,-1054 1712.8048,-1054 2033.4365,-1054 2131.7006,-1137.3522 2433.8267,-1030 2489.106,-1010.358 2540.7949,-963.9611 2569.5669,-934.6652"/>
<polygon fill="#efefef" stroke="#efefef" points="2572.2939,-936.8796 2576.7175,-927.2524 2567.2558,-932.0197 2572.2939,-936.8796"/>
</g>
<!-- 12421771694198418854&#45;&gt;13151252664271832927 -->
<g id="edge34" class="edge">
<title>12421771694198418854&#45;&gt;13151252664271832927</title>
<path fill="none" stroke="#efefef" d="M641.6956,-579.8661C650.7034,-575.708 658.9918,-570.2145 665.8132,-563 733.5823,-491.3262 634.3142,-415.9281 701.8132,-344 797.9946,-241.5075 872.3798,-301.6283 1009.9879,-273 1190.9324,-235.356 1234.8286,-214.4028 1418.8261,-197 1694.9115,-170.8873 1765.4667,-194.6667 2042.7834,-194 2216.5799,-193.5822 2260.2751,-184.7669 2433.8267,-194 2451.7561,-194.9539 2470.7725,-196.5075 2489.1879,-198.2977"/>
<polygon fill="#efefef" stroke="#efefef" points="2489.0473,-201.801 2499.3462,-199.3143 2489.7444,-194.8358 2489.0473,-201.801"/>
</g>
<!-- 12421771694198418854&#45;&gt;10695730148961032308 -->
<g id="edge35" class="edge">
<title>12421771694198418854&#45;&gt;10695730148961032308</title>
<path fill="none" stroke="#efefef" d="M619.6434,-576.1638C658.8627,-568.9466 707.1103,-560.0681 748.2608,-552.4955"/>
<polygon fill="#efefef" stroke="#efefef" points="749.0845,-555.9028 758.2859,-550.6507 747.8176,-549.0184 749.0845,-555.9028"/>
</g>
<!-- 12421771694198418854&#45;&gt;13788869053623754394 -->
<g id="edge36" class="edge">
<title>12421771694198418854&#45;&gt;13788869053623754394</title>
<path fill="none" stroke="#efefef" d="M556.6437,-608.1649C586.2841,-651.6858 662.5739,-759.6731 701.8132,-778 833.1872,-839.3588 1861.8528,-782.3779 2006.7834,-778 2043.7582,-776.8831 2084.0091,-774.765 2120.4239,-772.5082"/>
<polygon fill="#efefef" stroke="#efefef" points="2120.8267,-775.9898 2130.5871,-771.8686 2120.387,-769.0036 2120.8267,-775.9898"/>
</g>
<!-- 12421771694198418854&#45;&gt;12886313978623292199 -->
<g id="edge37" class="edge">
<title>12421771694198418854&#45;&gt;12886313978623292199</title>
<path fill="none" stroke="#efefef" d="M640.7821,-579.8212C650.077,-575.6895 658.681,-570.2142 665.8132,-563 720.4169,-507.7692 641.503,-440.9354 701.8132,-392 814.4081,-300.6412 1868.4133,-348.6668 2006.7834,-392 2025.3728,-397.8216 2024.6369,-409.9176 2042.7834,-417 2066.0327,-426.0739 2091.8787,-432.1701 2116.9621,-436.2486"/>
<polygon fill="#efefef" stroke="#efefef" points="2116.4888,-439.7168 2126.9029,-437.7683 2117.5467,-432.7972 2116.4888,-439.7168"/>
</g>
<!-- 10129474377767673784&#45;&gt;10848326615985732359 -->
<g id="edge38" class="edge">
<title>10129474377767673784&#45;&gt;10848326615985732359</title>
<path fill="none" stroke="#efefef" d="M1951.348,-500.5553C2094.3385,-512.3703 2278.0424,-537.3329 2433.8267,-590 2480.5906,-605.8098 2529.2834,-635.5865 2560.3337,-656.5494"/>
<polygon fill="#efefef" stroke="#efefef" points="2558.3776,-659.4519 2568.6073,-662.2094 2562.33,-653.6744 2558.3776,-659.4519"/>
</g>
<!-- 10129474377767673784&#45;&gt;10946161693179750605 -->
<g id="edge39" class="edge">
<title>10129474377767673784&#45;&gt;10946161693179750605</title>
<path fill="none" stroke="#efefef" d="M1967.8413,-480.9415C1981.6834,-474.8245 1994.8049,-467.2677 2006.7834,-458 2042.4948,-430.3701 2005.6273,-388.6543 2042.7834,-363 2114.2929,-313.6266 2348.0856,-348.8643 2433.8267,-363 2472.3458,-369.3505 2514.0767,-383.792 2545.1631,-396.1435"/>
<polygon fill="#efefef" stroke="#efefef" points="2543.8706,-399.3962 2554.4536,-399.8984 2546.4937,-392.9062 2543.8706,-399.3962"/>
</g>
<!-- 10129474377767673784&#45;&gt;11504827122213183863 -->
<g id="edge40" class="edge">
<title>10129474377767673784&#45;&gt;11504827122213183863</title>
<path fill="none" stroke="#efefef" d="M1808.1158,-507.0611C1952.7033,-536.2277 2231.9746,-605.6606 2433.8267,-737 2494.9429,-776.7666 2548.5385,-845.1013 2575.2123,-882.5502"/>
<polygon fill="#efefef" stroke="#efefef" points="2572.4866,-884.7591 2581.0984,-890.9307 2578.2149,-880.7358 2572.4866,-884.7591"/>
</g>
<!-- 10129474377767673784&#45;&gt;13151252664271832927 -->
<g id="edge41" class="edge">
<title>10129474377767673784&#45;&gt;13151252664271832927</title>
<path fill="none" stroke="#efefef" d="M1744.5877,-472.0362C1802.3018,-440.0919 1928.9111,-373.0991 2042.7834,-334 2086.9525,-318.8341 2370.9913,-257.952 2512.8173,-227.9221"/>
<polygon fill="#efefef" stroke="#efefef" points="2513.719,-231.3088 2522.7777,-225.8143 2512.2697,-224.4605 2513.719,-231.3088"/>
</g>
<!-- 10129474377767673784&#45;&gt;10695730148961032308 -->
<g id="edge42" class="edge">
<title>10129474377767673784&#45;&gt;10695730148961032308</title>
<path fill="none" stroke="#efefef" d="M1460.5862,-499.3042C1326.6587,-504.7952 1159.3133,-512.5294 1009.9879,-522 994.5046,-522.982 978.2478,-524.1392 962.1632,-525.3606"/>
<polygon fill="#efefef" stroke="#efefef" points="961.8811,-521.8718 952.1789,-526.1284 962.4179,-528.8512 961.8811,-521.8718"/>
</g>
<!-- 10129474377767673784&#45;&gt;13788869053623754394 -->
<g id="edge43" class="edge">
<title>10129474377767673784&#45;&gt;13788869053623754394</title>
<path fill="none" stroke="#efefef" d="M1820.973,-506.7859C1882.4734,-521.427 1956.9236,-548.4733 2006.7834,-598 2039.1127,-630.1133 2010.3216,-662.0207 2042.7834,-694 2070.4866,-721.2915 2109.5538,-738.0119 2145.4913,-748.2242"/>
<polygon fill="#efefef" stroke="#efefef" points="2144.9658,-751.7076 2155.5325,-750.9354 2146.7906,-744.9496 2144.9658,-751.7076"/>
</g>
<!-- 10129474377767673784&#45;&gt;12886313978623292199 -->
<g id="edge44" class="edge">
<title>10129474377767673784&#45;&gt;12886313978623292199</title>
<path fill="none" stroke="#efefef" d="M1881.6067,-475.2238C1961.2734,-468.2501 2054.2104,-460.1148 2125.2442,-453.8969"/>
<polygon fill="#efefef" stroke="#efefef" points="2125.9048,-457.3525 2135.5615,-452.9937 2125.2944,-450.3792 2125.9048,-457.3525"/>
</g>
<!-- 11252927259328145570&#45;&gt;10848326615985732359 -->
<g id="edge45" class="edge">
<title>11252927259328145570&#45;&gt;10848326615985732359</title>
<path fill="none" stroke="#efefef" d="M1246.5728,-469.4056C1291.2465,-484.2426 1358.6582,-505.0146 1418.8261,-517 1863.883,-605.6548 1990.2053,-532.4212 2433.8267,-628 2469.8864,-635.7691 2509.3039,-648.5964 2539.9096,-659.5666"/>
<polygon fill="#efefef" stroke="#efefef" points="2538.9274,-662.9334 2549.5215,-663.0543 2541.3151,-656.3532 2538.9274,-662.9334"/>
</g>
<!-- 11252927259328145570&#45;&gt;10946161693179750605 -->
<g id="edge46" class="edge">
<title>11252927259328145570&#45;&gt;10946161693179750605</title>
<path fill="none" stroke="#efefef" d="M1284.07,-436.1046C1528.6325,-392.9546 2214.7824,-280.3636 2433.8267,-334 2480.5602,-345.4434 2528.8256,-373.2365 2559.8052,-393.5182"/>
<polygon fill="#efefef" stroke="#efefef" points="2558.1933,-396.6499 2568.456,-399.2818 2562.0745,-390.8244 2558.1933,-396.6499"/>
</g>
<!-- 11252927259328145570&#45;&gt;11504827122213183863 -->
<g id="edge47" class="edge">
<title>11252927259328145570&#45;&gt;11504827122213183863</title>
<path fill="none" stroke="#efefef" d="M1227.4141,-469.8522C1269.4755,-493.3418 1347.5606,-534.4021 1418.8261,-558 1671.6763,-641.7254 1808.9359,-495.6758 2006.7834,-674 2047.1964,-710.4251 2002.6707,-754.2444 2042.7834,-791 2105.667,-848.6207 2338.6872,-882.5258 2480.5814,-898.2664"/>
<polygon fill="#efefef" stroke="#efefef" points="2480.3148,-901.7581 2490.6367,-899.3684 2481.0775,-894.7997 2480.3148,-901.7581"/>
</g>
<!-- 11252927259328145570&#45;&gt;13151252664271832927 -->
<g id="edge48" class="edge">
<title>11252927259328145570&#45;&gt;13151252664271832927</title>
<path fill="none" stroke="#efefef" d="M1221.278,-434.1191C1260.9001,-406.673 1341.7656,-354.8407 1418.8261,-331 1444.0626,-323.1925 2190.8212,-250.0797 2480.1588,-221.9531"/>
<polygon fill="#efefef" stroke="#efefef" points="2480.6421,-225.4228 2490.2566,-220.9718 2479.9649,-218.4556 2480.6421,-225.4228"/>
</g>
<!-- 11252927259328145570&#45;&gt;10129474377767673784 -->
<g id="edge13" class="edge">
<title>11252927259328145570&#45;&gt;10129474377767673784</title>
<path fill="none" stroke="#000000" d="M1344.7318,-462.9147C1397.582,-466.8038 1457.9823,-471.2485 1514.3607,-475.3972"/>
<polygon fill="#000000" stroke="#000000" points="1514.2399,-478.8976 1524.4699,-476.1411 1514.7537,-471.9165 1514.2399,-478.8976"/>
</g>
<!-- 11354074206287318022&#45;&gt;10848326615985732359 -->
<g id="edge49" class="edge">
<title>11354074206287318022&#45;&gt;10848326615985732359</title>
<path fill="none" stroke="#efefef" d="M614.3393,-550.7438C705.1398,-569.443 868.7726,-601.5836 1009.9879,-621 1544.6686,-694.5161 2189.839,-689.9952 2461.9701,-683.8762"/>
<polygon fill="#efefef" stroke="#efefef" points="2462.3647,-687.3681 2472.2817,-683.6395 2462.204,-680.37 2462.3647,-687.3681"/>
</g>
<!-- 11354074206287318022&#45;&gt;10946161693179750605 -->
<g id="edge50" class="edge">
<title>11354074206287318022&#45;&gt;10946161693179750605</title>
<path fill="none" stroke="#efefef" d="M556.187,-517.8493C578.066,-483.9107 626.4444,-408.4415 665.8132,-344 682.225,-317.1362 675.3963,-300.1219 701.8132,-283 945.6313,-124.9719 1718.7,-164.2095 2006.7834,-202 2201.5582,-227.5504 2253.8953,-237.1667 2433.8267,-316 2481.2611,-336.7824 2530.8843,-370.4276 2561.8931,-393.115"/>
<polygon fill="#efefef" stroke="#efefef" points="2560.0065,-396.0729 2570.1282,-399.2037 2564.1681,-390.4443 2560.0065,-396.0729"/>
</g>
<!-- 11354074206287318022&#45;&gt;11504827122213183863 -->
<g id="edge51" class="edge">
<title>11354074206287318022&#45;&gt;11504827122213183863</title>
<path fill="none" stroke="#efefef" d="M642.4908,-546.6245C651.1749,-550.7163 659.1733,-556.0597 665.8132,-563 729.4589,-629.5258 637.8351,-700.7939 701.8132,-767 1121.4034,-1201.2024 1439.8105,-953.1985 2042.7834,-985 2216.3392,-994.1535 2264.316,-1023.3604 2433.8267,-985 2478.8497,-974.8113 2526.0483,-950.3002 2557.2745,-931.8489"/>
<polygon fill="#efefef" stroke="#efefef" points="2559.2698,-934.7332 2566.0374,-926.5815 2555.6634,-928.7337 2559.2698,-934.7332"/>
</g>
<!-- 11354074206287318022&#45;&gt;13151252664271832927 -->
<g id="edge52" class="edge">
<title>11354074206287318022&#45;&gt;13151252664271832927</title>
<path fill="none" stroke="#efefef" d="M546.6728,-517.6592C554.807,-459.2254 588.695,-276.5504 701.8132,-196 770.8517,-146.8384 886.6053,-137.2304 2042.7834,-102 2216.4998,-96.7066 2267.7925,-50.638 2433.8267,-102 2487.0229,-118.456 2538.279,-159.4666 2567.7047,-186.2263"/>
<polygon fill="#efefef" stroke="#efefef" points="2565.3399,-188.8066 2575.0562,-193.0311 2570.095,-183.6696 2565.3399,-188.8066"/>
</g>
<!-- 11354074206287318022&#45;&gt;10695730148961032308 -->
<g id="edge53" class="edge">
<title>11354074206287318022&#45;&gt;10695730148961032308</title>
<path fill="none" stroke="#efefef" d="M665.9287,-536C674.4283,-536 683.0444,-536 691.6584,-536"/>
<polygon fill="#efefef" stroke="#efefef" points="691.7623,-539.5001 701.7622,-536 691.7622,-532.5001 691.7623,-539.5001"/>
</g>
<!-- 11354074206287318022&#45;&gt;13788869053623754394 -->
<g id="edge54" class="edge">
<title>11354074206287318022&#45;&gt;13788869053623754394</title>
<path fill="none" stroke="#efefef" d="M642.3073,-546.8023C651.0268,-550.8598 659.0837,-556.1465 665.8132,-563 722.0571,-620.2806 640.0471,-688.7223 701.8132,-740 755.5479,-784.6101 1749.6295,-772.2939 2109.5699,-766.3357"/>
<polygon fill="#efefef" stroke="#efefef" points="2109.8327,-769.8319 2119.773,-766.1657 2109.716,-762.8329 2109.8327,-769.8319"/>
</g>
<!-- 11354074206287318022&#45;&gt;12886313978623292199 -->
<g id="edge55" class="edge">
<title>11354074206287318022&#45;&gt;12886313978623292199</title>
<path fill="none" stroke="#efefef" d="M553.2927,-517.7984C573.3327,-478.915 626.4115,-388.4843 701.8132,-354 965.535,-233.3892 1755.9652,-208.4445 2006.7834,-354 2034.6759,-370.1867 2016.0662,-398.9392 2042.7834,-417 2062.5314,-430.3497 2085.9838,-438.438 2109.6693,-443.1385"/>
<polygon fill="#efefef" stroke="#efefef" points="2109.365,-446.6394 2119.8244,-444.9511 2110.595,-439.7483 2109.365,-446.6394"/>
</g>
</g>
</svg>
